<?xml version="1.0" encoding="UTF-8"?>
<svg width="100" height="100" viewBox="0 0 100 100" fill="none" xmlns="http://www.w3.org/2000/svg">
  <path d="M50 10C28.1 10 10 28.1 10 50c0 21.9 18.1 40 40 40s40-18.1 40-40c0-21.9-18.1-40-40-40zm0 5c19.3 0 35 15.7 35 35s-15.7 35-35 35S15 69.3 15 50 30.7 15 50 15z" fill="#f0d7a1"/>
  <path d="M50 20c-16.6 0-30 13.4-30 30s13.4 30 30 30 30-13.4 30-30-13.4-30-30-30zm0 5c13.8 0 25 11.2 25 25S63.8 75 50 75 25 63.8 25 50s11.2-25 25-25z" fill="#8b0000"/>
  <path d="M50 30c-11 0-20 9-20 20s9 20 20 20 20-9 20-20-9-20-20-20zm0 5c8.3 0 15 6.7 15 15s-6.7 15-15 15-15-6.7-15-15 6.7-15 15-15z" fill="#f0d7a1"/>
  <path d="M50 35c-8.3 0-15 6.7-15 15s6.7 15 15 15 15-6.7 15-15-6.7-15-15-15z" fill="#8b0000"/>
  <path d="M50 40c-5.5 0-10 4.5-10 10s4.5 10 10 10 10-4.5 10-10-4.5-10-10-10z" fill="#f0d7a1"/>
  <path d="M50 45c-2.8 0-5 2.2-5 5s2.2 5 5 5 5-2.2 5-5-2.2-5-5-5z" fill="#8b0000"/>
  <path d="M50 48c-1.1 0-2 .9-2 2s.9 2 2 2 2-.9 2-2-.9-2-2-2z" fill="#f0d7a1"/>
</svg>
